<svg xmlns="http://www.w3.org/2000/svg" width="110" height="22" viewBox="0 0 110 22" fill="none">
<g clip-path="url(#clip0_720_9773)">
<path d="M91.127 22H89.4578L98.7043 0.0375977H100.737L110 22H105.097L98.2426 5.0826L91.127 22Z" fill="#0D0D38"/>
<path d="M84.0516 22H79.6265V0.0375977H84.0516V22Z" fill="#0D0D38"/>
<path d="M69.3064 14.4963L63.0575 11.495C65.0414 11.495 65.1176 11.5148 66.9262 11.5148C69.8628 11.5148 72.2289 10.3304 73.3232 8.7446C75.1459 6.10292 73.835 2.47337 71.0094 1.0527C69.3892 0.238346 67.4859 0 65.6795 0H58.1043V1.41753C58.1043 1.41753 62.7102 1.42276 64.6864 1.42276C67.1211 1.42276 69.0244 2.23084 69.7496 4.49304C70.0262 5.35548 70.0577 6.27018 69.8607 7.15248C69.0625 10.7266 65.9941 10.7705 65.6424 10.7643L62.7102 10.713V11.495L68.4789 21.9843H73.284L69.3053 14.4963H69.3064Z" fill="#0D0D38"/>
<path d="M36.7411 0V1.41753H44.4262L44.4284 21.9843H48.8426V4.44077L44.7746 1.41753H54.7147V0H36.7411Z" fill="#0D0D38"/>
<path d="M20.0435 22H18.3743L27.6208 0.0375977H29.6537L38.9166 22H34.0135L27.1592 5.0826L20.0435 22Z" fill="#0D0D38"/>
<path d="M18.0346 4.72612C17.6546 3.56262 16.949 2.63432 16.0497 1.92033C14.4654 0.662734 12.2801 0.0741859 10.2199 0.0396884C10.1241 0.0375977 10.0283 0.0375977 9.93249 0.0375977H0V22H4.44033V3.78005L0.348432 1.23142C0.348432 1.23142 9.15396 1.21679 9.15614 1.21679C10.3473 1.21679 11.5832 1.46872 12.5142 2.22139C13.4037 2.94061 13.8774 4.03095 14.0865 5.10664C14.5536 7.51101 13.2361 10.5572 10.4214 10.7642C9.42727 10.8374 5.98976 10.7642 5.98976 10.7642L6.7868 11.6214C6.7868 11.6214 9.6385 11.6486 10.3735 11.6214C13.015 11.5242 15.0675 11.0266 16.5385 9.83907C18.0738 8.59925 18.6335 6.5639 18.0346 4.72612Z" fill="#0D0D38"/>
</g>
<defs>
<clipPath id="clip0_720_9773">
<rect width="110" height="22" fill="#0D0D38"/>
</clipPath>
</defs>
</svg>
